<?xml version="1.0" standalone="no"?>
<!DOCTYPE svg PUBLIC "-//W3C//DTD SVG 20010904//EN"
 "http://www.w3.org/TR/2001/REC-SVG-20010904/DTD/svg10.dtd">
<svg version="1.0" xmlns="http://www.w3.org/2000/svg"
 width="560.000000pt" height="225.000000pt" viewBox="0 0 560.000000 225.000000"
 preserveAspectRatio="xMidYMid meet">

<g transform="translate(0.000000,225.000000) scale(0.100000,-0.100000)"
fill="#000000" stroke="none">
<path d="M2717 2203 c-4 -3 -7 -496 -7 -1095 0 -960 2 -1088 15 -1088 13 0 15
128 15 1095 0 602 -4 1095 -8 1095 -5 0 -12 -3 -15 -7z"/>
<path d="M4030 1740 l0 -241 38 3 37 3 0 235 0 235 -37 3 -38 3 0 -241z"/>
<path d="M2890 1730 l0 -227 35 -1 35 -1 2 162 c3 172 2 174 31 -58 l12 -100
35 0 35 0 17 145 c9 80 18 152 19 160 2 8 6 -57 9 -145 l5 -160 38 -3 37 -3 0
230 0 231 -55 0 c-51 0 -56 -2 -66 -27 -6 -16 -14 -64 -19 -107 -5 -44 -13
-83 -18 -88 -5 -5 -14 37 -21 98 -7 60 -15 112 -17 116 -3 5 -30 8 -60 7 l-54
-2 0 -227z"/>
<path d="M3312 1855 c-31 -14 -67 -69 -56 -87 3 -5 22 -8 43 -8 31 0 40 4 44
21 9 33 32 17 35 -24 3 -35 2 -37 -26 -37 -45 0 -95 -39 -103 -80 -20 -97 42
-167 114 -129 16 9 22 9 25 0 2 -6 21 -11 43 -11 l39 0 0 141 c0 162 -11 200
-62 218 -40 14 -56 13 -96 -4z m66 -237 c-2 -35 -7 -43 -23 -43 -22 0 -30 24
-21 61 4 15 14 24 27 24 18 0 20 -5 17 -42z"/>
<path d="M3570 1857 c-43 -15 -62 -49 -57 -105 5 -43 8 -48 82 -105 28 -22 35
-35 33 -55 -4 -34 -30 -35 -38 -2 -6 25 -36 35 -67 23 -22 -9 -15 -62 12 -88
34 -35 112 -35 152 -1 25 21 28 31 28 81 0 51 -3 59 -30 82 -84 69 -95 81 -89
97 9 24 32 20 36 -6 2 -19 10 -24 41 -26 36 -3 37 -2 37 31 0 34 -29 77 -53
77 -7 0 -21 2 -32 5 -11 2 -36 -1 -55 -8z"/>
<path d="M3822 1859 c-24 -7 -37 -19 -48 -44 -21 -50 -18 -55 27 -55 33 0 42
4 46 20 9 35 38 20 38 -20 0 -31 -3 -35 -32 -41 -93 -19 -132 -107 -83 -186
16 -27 26 -33 52 -33 18 0 40 4 48 10 9 5 19 5 27 -1 6 -6 26 -9 44 -7 l32 3
-2 149 c-1 83 -7 158 -12 169 -11 19 -67 48 -91 46 -7 0 -28 -5 -46 -10z m68
-228 c0 -42 -10 -61 -31 -61 -23 0 -35 40 -19 69 6 12 20 21 30 21 15 0 20 -7
20 -29z"/>
<path d="M4224 1859 c-39 -11 -52 -26 -56 -64 -3 -28 -1 -30 34 -33 29 -3 38
1 43 17 9 29 33 26 41 -4 8 -33 -1 -55 -24 -55 -11 0 -33 -5 -51 -11 -89 -31
-78 -209 13 -209 17 0 37 5 44 12 9 9 15 9 24 0 7 -7 27 -12 45 -12 l33 0 0
151 c0 88 -4 159 -11 171 -11 20 -67 49 -91 47 -7 0 -27 -5 -44 -10z m66 -233
c0 -37 -21 -62 -45 -52 -18 7 -20 57 -3 74 7 7 20 12 30 12 14 0 18 -8 18 -34z"/>
<path d="M1727 1572 c-88 -12 -107 -17 -105 -30 2 -9 18 -19 36 -23 18 -4 36
-10 40 -14 4 -4 7 -187 7 -408 l0 -402 -42 -13 c-28 -9 -43 -20 -43 -30 0 -15
17 -17 157 -15 134 1 158 3 161 17 2 10 -8 18 -30 24 l-33 8 -3 175 c-2 156 0
177 17 205 36 59 140 85 180 45 27 -27 33 -80 29 -260 -3 -135 -5 -155 -20
-162 -10 -5 -26 -13 -35 -18 -10 -4 -18 -14 -18 -21 0 -9 37 -12 155 -12 130
0 155 2 158 15 2 10 -11 19 -40 28 l-43 14 -5 222 c-5 204 -7 224 -26 250 -46
63 -159 87 -234 50 -19 -9 -54 -36 -78 -58 l-42 -41 -1 173 c-1 96 0 202 1
237 2 55 0 62 -17 61 -10 -1 -67 -8 -126 -17z"/>
<path d="M4090 1175 l0 -235 40 0 c22 0 40 4 40 10 0 5 13 2 28 -7 38 -22 77
-11 97 27 18 35 21 239 4 289 -15 43 -50 51 -111 26 -16 -6 -18 0 -18 59 l0
66 -40 0 -40 0 0 -235z m128 43 c14 -14 17 -175 3 -196 -5 -8 -17 -12 -27 -10
-17 3 -19 14 -22 97 -3 107 12 143 46 109z"/>
<path d="M4640 1175 l0 -235 40 0 40 0 0 235 0 235 -40 0 -40 0 0 -235z"/>
<path d="M2890 1165 l0 -225 40 0 40 0 0 94 c0 96 8 118 35 96 11 -9 15 -36
15 -101 l0 -89 44 0 44 0 -5 98 c-4 66 -10 103 -21 115 -14 15 -13 19 4 38 15
16 19 36 19 86 0 60 -2 67 -30 89 -26 21 -41 24 -107 24 l-78 0 0 -225z m118
153 c16 -16 16 -90 0 -106 -28 -28 -38 -13 -38 53 0 66 10 81 38 53z"/>
<path d="M3203 1290 c-25 -10 -43 -39 -43 -69 0 -18 6 -21 39 -21 31 0 40 4
44 21 9 33 32 17 35 -24 3 -32 0 -37 -18 -37 -26 0 -57 -15 -87 -43 -19 -17
-23 -31 -23 -79 0 -50 4 -63 26 -85 20 -20 31 -24 52 -18 15 4 53 6 85 5 l57
-1 0 146 c0 193 -11 216 -110 214 -19 0 -45 -4 -57 -9z m77 -235 c0 -41 -2
-45 -25 -45 -22 0 -25 4 -25 33 0 34 15 57 37 57 9 0 13 -15 13 -45z"/>
<path d="M3532 1291 c-7 -4 -35 -6 -63 -3 l-49 5 0 -177 0 -176 45 0 45 0 0
139 c0 136 7 168 31 144 6 -6 11 -70 12 -144 l2 -134 43 -3 42 -3 0 140 c0
141 6 165 35 141 12 -10 15 -41 15 -146 l0 -134 40 0 40 0 0 160 c0 147 -2
162 -20 180 -24 24 -67 26 -98 4 -20 -14 -24 -14 -38 0 -17 17 -61 21 -82 7z"/>
<path d="M3875 1291 c-27 -11 -41 -30 -49 -63 -6 -27 -5 -28 38 -28 36 0 45 4
49 22 5 18 8 19 21 8 9 -7 16 -25 16 -40 0 -24 -5 -28 -37 -33 -21 -4 -48 -14
-60 -22 -44 -31 -54 -131 -18 -179 11 -14 26 -19 52 -18 21 1 62 1 91 1 l52 0
0 154 c0 185 -5 197 -86 203 -27 2 -58 0 -69 -5z m75 -229 c0 -41 -15 -63 -36
-55 -17 6 -18 65 -2 81 23 23 38 13 38 -26z"/>
<path d="M4393 1292 l-33 -3 0 -155 c0 -151 1 -156 25 -179 28 -29 61 -32 93
-9 12 8 22 10 22 5 0 -6 18 -11 40 -11 l40 0 0 175 0 175 -40 0 -39 0 -3 -137
-3 -138 -25 0 -25 0 -3 135 c-1 74 -6 137 -10 140 -4 3 -22 4 -39 2z"/>
<path d="M4824 1291 c-26 -12 -54 -49 -54 -73 0 -28 76 -26 85 2 8 26 21 25
35 0 18 -33 4 -57 -37 -65 -20 -3 -49 -19 -65 -35 -23 -23 -28 -37 -28 -75 0
-87 58 -138 115 -101 14 9 25 12 25 6 0 -5 18 -10 40 -10 l40 0 0 154 c0 184
-5 196 -86 202 -27 2 -59 0 -70 -5z m71 -214 c7 -25 -9 -77 -23 -77 -31 0 -42
58 -16 84 21 22 33 20 39 -7z"/>
<path d="M5058 1292 l-28 -3 0 -175 0 -174 45 0 45 0 0 123 c0 134 5 167 26
167 26 0 34 -40 34 -164 l0 -126 40 0 40 0 0 158 c0 145 -2 160 -20 180 -24
26 -66 29 -98 6 -12 -8 -22 -11 -22 -6 0 12 -27 18 -62 14z"/>
<path d="M5365 1290 c-28 -11 -42 -30 -47 -60 -3 -23 1 -25 38 -28 36 -3 42 0
47 19 5 19 8 20 21 9 9 -7 16 -25 16 -41 0 -22 -5 -29 -20 -29 -38 0 -89 -28
-104 -59 -44 -84 11 -190 86 -165 13 4 45 8 71 8 l48 1 1 140 c0 154 -8 190
-47 205 -31 12 -82 12 -110 0z m75 -229 c0 -49 -25 -75 -46 -46 -18 24 -18 35
2 63 24 35 44 28 44 -17z"/>
<path d="M210 1240 c-19 -5 -66 -12 -105 -15 -38 -3 -71 -8 -73 -9 -10 -10 14
-36 34 -36 13 0 33 -9 44 -20 19 -19 20 -31 18 -248 l-3 -227 -42 -13 c-29
-10 -43 -20 -43 -32 0 -16 14 -17 165 -17 142 1 165 3 165 16 0 9 -18 24 -41
33 l-41 17 4 173 c3 195 11 219 78 257 47 26 91 27 121 2 24 -19 24 -21 24
-227 l0 -209 -35 -16 c-19 -9 -35 -23 -35 -30 0 -11 33 -14 158 -15 142 -1
157 1 157 17 0 10 -11 20 -27 24 -52 13 -53 16 -53 188 0 140 3 166 20 202 35
73 130 107 181 66 24 -19 24 -21 24 -227 l0 -209 -35 -16 c-19 -9 -35 -23 -35
-30 0 -11 64 -14 348 -15 321 0 347 1 347 17 0 12 -14 20 -47 29 -83 20 -83
20 -83 207 0 179 9 219 54 248 29 19 69 14 98 -12 15 -13 22 -14 48 -3 46 19
80 49 80 71 0 11 -11 31 -25 44 -44 45 -137 25 -215 -45 l-35 -32 -3 47 -3 47
-42 -6 c-23 -4 -79 -9 -124 -13 -69 -5 -83 -9 -83 -23 0 -11 14 -21 40 -29 33
-10 41 -17 50 -49 13 -48 13 -397 0 -422 -16 -30 -77 -44 -125 -28 l-40 13 -5
225 c-4 188 -8 230 -22 257 -28 50 -73 76 -139 81 -68 5 -117 -18 -186 -87
-45 -45 -53 -49 -53 -24 0 26 -46 79 -83 97 -60 28 -124 21 -187 -20 -29 -19
-63 -46 -75 -60 -11 -13 -24 -24 -28 -24 -5 0 -7 26 -5 58 3 55 2 57 -22 59
-14 1 -41 -3 -60 -7z"/>
<path d="M3438 620 c-2 -127 -1 -235 0 -240 2 -6 21 -10 43 -10 l39 0 0 240 0
240 -40 0 -39 0 -3 -230z"/>
<path d="M3708 788 c-2 -51 -6 -62 -18 -58 -38 11 -84 3 -102 -19 -15 -20 -18
-42 -18 -161 0 -119 2 -140 19 -158 22 -27 76 -29 103 -5 17 15 18 15 18 0 0
-13 9 -17 40 -17 l40 0 0 240 0 240 -40 0 -39 0 -3 -62z m-3 -151 c3 -12 5
-58 3 -101 -2 -63 -7 -81 -21 -90 -14 -8 -20 -8 -27 4 -11 16 -14 169 -4 194
9 24 43 20 49 -7z"/>
<path d="M3850 810 l0 -40 40 0 40 0 0 40 0 40 -40 0 -40 0 0 -40z"/>
<path d="M2443 822 c-12 -2 -33 -15 -47 -29 -39 -39 -37 -105 5 -144 42 -39
87 -39 131 0 28 25 33 36 33 75 0 32 -6 51 -20 66 -23 23 -69 38 -102 32z"/>
<path d="M2890 599 l0 -230 38 3 37 3 3 103 3 103 27 -3 27 -3 3 -102 3 -103
39 0 40 0 0 230 0 230 -40 0 -39 0 -3 -87 c-3 -88 -3 -88 -30 -91 l-28 -3 0
90 0 91 -40 0 -40 0 0 -231z"/>
<path d="M3222 725 c-46 -20 -62 -65 -62 -173 0 -142 25 -182 115 -182 91 0
115 39 115 187 0 110 -14 148 -65 169 -42 17 -61 17 -103 -1z m76 -174 c-3
-98 -4 -106 -23 -106 -18 0 -20 8 -23 99 -3 100 6 130 34 119 12 -4 14 -26 12
-112z"/>
<path d="M4098 725 c-17 -10 -29 -11 -33 -5 -3 5 -25 10 -47 10 l-41 0 7 -46
c3 -26 6 -107 6 -180 l0 -134 40 0 39 0 3 142 c3 131 5 143 22 146 10 2 22 -2
27 -10 5 -7 9 -73 9 -145 l0 -133 40 0 40 0 0 159 c0 137 -2 162 -17 179 -24
28 -62 35 -95 17z"/>
<path d="M4309 729 c-42 -15 -51 -53 -47 -188 2 -96 6 -124 20 -137 18 -18 60
-23 96 -10 22 7 23 6 20 -31 -2 -28 -8 -39 -22 -41 -10 -2 -21 1 -25 6 -6 10
-31 15 -70 13 -20 -1 -22 -5 -16 -28 12 -48 64 -70 136 -58 31 5 45 14 60 39
17 28 19 51 19 234 l0 203 -52 -2 c-29 -2 -62 0 -73 3 -11 4 -32 2 -46 -3z
m89 -162 c3 -98 -6 -124 -39 -106 -16 8 -19 21 -19 89 0 94 6 112 34 108 19
-3 21 -10 24 -91z"/>
<path d="M4583 730 c-26 -10 -63 -66 -63 -93 0 -33 29 -75 75 -108 47 -34 60
-55 49 -83 -10 -26 -34 -18 -40 14 -6 27 -10 30 -45 30 -35 0 -39 -3 -39 -26
0 -61 37 -93 106 -94 72 0 104 30 104 99 0 56 -25 94 -86 132 -25 15 -34 27
-32 43 4 28 32 27 36 -1 3 -19 10 -23 43 -23 34 0 39 3 39 23 0 69 -77 115
-147 87z"/>
<path d="M3850 550 l0 -180 40 0 40 0 0 180 0 180 -40 0 -40 0 0 -180z"/>
</g>
</svg>
